<svg width="98" height="98" viewBox="0 0 98 98" fill="none" xmlns="http://www.w3.org/2000/svg">
<rect width="98" height="98" fill="#E5E5E5"/>
<rect width="1600" height="3959" transform="translate(-755 -1770)" fill="white"/>
<g opacity="0.1" filter="url(#filter0_f_0_1)">
<rect x="-453" y="-354" width="271" height="556" rx="50" fill="#03101A"/>
</g>
<path d="M49 4.04631C49 0.154738 45.8272 -3.05516 41.9812 -2.46137C38.3555 -1.9016 34.8015 -0.90882 31.3966 0.501541C25.8156 2.81326 20.7446 6.20159 16.4731 10.4731C12.2016 14.7446 8.81326 19.8156 6.50154 25.3966C4.18982 30.9775 3 36.9592 3 43C3 49.0408 4.18983 55.0225 6.50154 60.6034C8.81326 66.1844 12.2016 71.2554 16.4731 75.5269C20.7446 79.7984 25.8156 83.1867 31.3966 85.4985C34.8015 86.9088 38.3555 87.9016 41.9812 88.4614C45.8272 89.0552 49 85.8453 49 81.9537C49 78.0621 45.8078 74.9849 42.0108 74.1325C40.2304 73.7328 38.4834 73.1802 36.7896 72.4786C32.9184 70.8751 29.4009 68.5248 26.4381 65.5619C23.4752 62.5991 21.1249 59.0816 19.5214 55.2104C17.9179 51.3392 17.0926 47.1901 17.0926 43C17.0926 38.8099 17.9179 34.6608 19.5214 30.7896C21.1249 26.9184 23.4752 23.4009 26.4381 20.4381C29.4009 17.4752 32.9184 15.1249 36.7896 13.5214C38.4834 12.8198 40.2304 12.2672 42.0108 11.8675C45.8078 11.0151 49 7.93788 49 4.04631Z" fill="url(#paint0_linear_0_1)"/>
<g filter="url(#filter1_d_0_1)">
<circle cx="55" cy="43" r="40" fill="white"/>
</g>
<path d="M47 48.2001C47 53.0376 50.9125 56.9501 55.75 56.9501C60.5875 56.9501 64.5 53.0376 64.5 48.2001V43.2001H47V48.2001ZM60.9 33.6626L63.525 31.0376L62.5 30.0001L59.625 32.8876C58.45 32.3001 57.15 31.9501 55.75 31.9501C54.35 31.9501 53.05 32.3001 51.8875 32.8876L49 30.0001L47.975 31.0376L50.6 33.6626C48.425 35.2501 47 37.8001 47 40.7001V41.9501H64.5V40.7001C64.5 37.8001 63.075 35.2501 60.9 33.6626ZM52 39.4501C51.3125 39.4501 50.75 38.8876 50.75 38.2001C50.75 37.5126 51.3125 36.9501 52 36.9501C52.6875 36.9501 53.25 37.5126 53.25 38.2001C53.25 38.8876 52.6875 39.4501 52 39.4501ZM59.5 39.4501C58.8125 39.4501 58.25 38.8876 58.25 38.2001C58.25 37.5126 58.8125 36.9501 59.5 36.9501C60.1875 36.9501 60.75 37.5126 60.75 38.2001C60.75 38.8876 60.1875 39.4501 59.5 39.4501Z" fill="#5AB2F1"/>
<defs>
<filter id="filter0_f_0_1" x="-689" y="-590" width="743" height="1028" filterUnits="userSpaceOnUse" color-interpolation-filters="sRGB">
<feFlood flood-opacity="0" result="BackgroundImageFix"/>
<feBlend mode="normal" in="SourceGraphic" in2="BackgroundImageFix" result="shape"/>
<feGaussianBlur stdDeviation="118" result="effect1_foregroundBlur_0_1"/>
</filter>
<filter id="filter1_d_0_1" x="0" y="0" width="98" height="98" filterUnits="userSpaceOnUse" color-interpolation-filters="sRGB">
<feFlood flood-opacity="0" result="BackgroundImageFix"/>
<feColorMatrix in="SourceAlpha" type="matrix" values="0 0 0 0 0 0 0 0 0 0 0 0 0 0 0 0 0 0 127 0" result="hardAlpha"/>
<feOffset dx="-6" dy="6"/>
<feGaussianBlur stdDeviation="4.5"/>
<feColorMatrix type="matrix" values="0 0 0 0 0.333333 0 0 0 0 0.690196 0 0 0 0 0.941176 0 0 0 0.5 0"/>
<feBlend mode="normal" in2="BackgroundImageFix" result="effect1_dropShadow_0_1"/>
<feBlend mode="normal" in="SourceGraphic" in2="effect1_dropShadow_0_1" result="shape"/>
</filter>
<linearGradient id="paint0_linear_0_1" x1="43.1455" y1="-3" x2="88.7273" y2="71.8545" gradientUnits="userSpaceOnUse">
<stop stop-color="#54AFF0"/>
<stop offset="1" stop-color="#54AFF0" stop-opacity="0"/>
</linearGradient>
</defs>
</svg>
